{"title":"The.Maze.Runner.2014.BRRip.480p.x264.AAC-VYTO [P2PDL]","uid":11674547,"size":427682245,"categoryP":"video","categoryS":"movies","magnet":"?xt=urn:btih:d5e2a085862abd44a97def63a2f78ca855d6701a&amp;dn=The.Maze.Runner.2014.BRRip.480p.x264.AAC-VYTO+%5BP2PDL%5D&amp;tr=udp%3A%2F%2Ftracker.openbittorrent.com%3A80&amp;tr=udp%3A%2F%2Fopen.demonii.com%3A1337&amp;tr=udp%3A%2F%2Ftracker.coppersurfer.tk%3A6969&amp;tr=udp%3A%2F%2Fexodus.desync.com%3A6969","seeders":10,"leechers":3,"uploader":"ValidusVyto","files":6,"time":1422801024,"description":"The.Maze.Runner.2014.BRRip.480p.x264.AAC-VYTO\n\n\nGenre: Action | Mystery | Sci-Fi\nIMDb: http://www.imdb.com/title/tt1790864/\n\nGeneral\nFormat                      : MPEG-4\nFile size                   : 397 MiB\nDuration                    : 1h 53mn\nOverall bit rate            : 489 Kbps\n\nVideo\nFormat                      : AVC\nDuration                    : 1h 53mn\nBit rate                    : 446 Kbps\nWidth                       : 720 pixels\nHeight                      : 304 pixels\nDisplay aspect ratio        : 2.35:1\nFrame rate mode             : Constant\nFrame rate                  : 23.976 fps\nBit depth                   : 8 bits\nStream size                 : 361 MiB (91%)\nWriting library             : x264 core 142 r2491 24e4fed\n\nAudio\nFormat                      : AAC\nBit rate mode               : Variable\nBit rate                    : 40.0 Kbps\nChannel(s)                  : 2 channels\nChannel positions           : Front: L R\nSampling rate               : 48.0 KHz\nStream size                 : 32.4 MiB (8%)\nLanguage                    : English\n\nSubtitle                       : Yes(English)\n &lt;a href=&quot;\nhttp://someimage.com/kImNt80&quot; rel=&quot;nofollow&quot; target=&quot;_NEW&quot;&gt;\nhttp://someimage.com/kImNt80&lt;/a&gt; &lt;a href=&quot;\nhttp://someimage.com/GrJ06N1&quot; rel=&quot;nofollow&quot; target=&quot;_NEW&quot;&gt;\nhttp://someimage.com/GrJ06N1&lt;/a&gt;\n\n----------------------------------------------------------------------------------------------------\n\n\nEncoder Notes: Looking For Early Access To Anything You Can Provide DVDScr, R5, DVDR, BluRay, Direct\nAudio, Music Releases and Seedboxes. We require dedicated servers, so as to do more \nand fast releases of movies.\nIf You Got anything to offer please contact us.\n\nFind us! Support us!","torrent":{"xt":"urn:btih:d5e2a085862abd44a97def63a2f78ca855d6701a","amp;dn":"The.Maze.Runner.2014.BRRip.480p.x264.AAC-VYTO+%5BP2PDL%5D","amp;tr":["udp%3A%2F%2Ftracker.openbittorrent.com%3A80","udp%3A%2F%2Fopen.demonii.com%3A1337","udp%3A%2F%2Ftracker.coppersurfer.tk%3A6969","udp%3A%2F%2Fexodus.desync.com%3A6969"],"infoHash":"d5e2a085862abd44a97def63a2f78ca855d6701a","infoHashBuffer":{"type":"Buffer","data":[213,226,160,133,134,42,189,68,169,125,239,99,162,247,140,168,85,214,112,26]},"announce":[],"urlList":[]}}